<mxfile host="app.diagrams.net" agent="Mozilla/5.0 (Windows NT 10.0; Win64; x64) AppleWebKit/537.36 (KHTML, like Gecko) Chrome/137.0.0.0 Safari/537.36 Edg/137.0.0.0" version="27.0.9">
  <diagram name="PÃ¡gina-1" id="UeFAgp2IqJQQrzLOy8mY">
    <mxGraphModel dx="1548" dy="856" grid="1" gridSize="10" guides="1" tooltips="1" connect="1" arrows="1" fold="1" page="1" pageScale="1" pageWidth="827" pageHeight="1169" math="0" shadow="0">
      <root>
        <mxCell id="0" />
        <mxCell id="1" parent="0" />
        <mxCell id="ChzMChHtCchUfzMYFm7m-1" value="AWS Infrastructure" style="whiteSpace=wrap;strokeWidth=2;verticalAlign=top;" vertex="1" parent="1">
          <mxGeometry x="20" y="20" width="264" height="886" as="geometry" />
        </mxCell>
        <mxCell id="ChzMChHtCchUfzMYFm7m-2" value="EventBridge" style="whiteSpace=wrap;strokeWidth=2;" vertex="1" parent="ChzMChHtCchUfzMYFm7m-1">
          <mxGeometry x="67" y="46" width="146" height="54" as="geometry" />
        </mxCell>
        <mxCell id="ChzMChHtCchUfzMYFm7m-3" value="Lambda Function" style="whiteSpace=wrap;strokeWidth=2;" vertex="1" parent="ChzMChHtCchUfzMYFm7m-1">
          <mxGeometry x="48" y="197" width="183" height="54" as="geometry" />
        </mxCell>
        <mxCell id="ChzMChHtCchUfzMYFm7m-4" value="SSM Run Command" style="whiteSpace=wrap;strokeWidth=2;" vertex="1" parent="ChzMChHtCchUfzMYFm7m-1">
          <mxGeometry x="43" y="348" width="194" height="54" as="geometry" />
        </mxCell>
        <mxCell id="ChzMChHtCchUfzMYFm7m-5" value="EC2 Instance" style="whiteSpace=wrap;strokeWidth=2;" vertex="1" parent="ChzMChHtCchUfzMYFm7m-1">
          <mxGeometry x="64" y="500" width="151" height="54" as="geometry" />
        </mxCell>
        <mxCell id="ChzMChHtCchUfzMYFm7m-6" value="Resultado" style="whiteSpace=wrap;strokeWidth=2;" vertex="1" parent="ChzMChHtCchUfzMYFm7m-1">
          <mxGeometry x="75" y="651" width="130" height="54" as="geometry" />
        </mxCell>
        <mxCell id="ChzMChHtCchUfzMYFm7m-7" value="CloudWatch Logs" style="whiteSpace=wrap;strokeWidth=2;" vertex="1" parent="ChzMChHtCchUfzMYFm7m-1">
          <mxGeometry x="49" y="802" width="181" height="54" as="geometry" />
        </mxCell>
        <mxCell id="ChzMChHtCchUfzMYFm7m-8" value="Dispara evento" style="curved=1;startArrow=none;endArrow=block;exitX=0.5;exitY=0.99;entryX=0.5;entryY=0;rounded=0;" edge="1" parent="ChzMChHtCchUfzMYFm7m-1" source="ChzMChHtCchUfzMYFm7m-2" target="ChzMChHtCchUfzMYFm7m-3">
          <mxGeometry relative="1" as="geometry">
            <Array as="points" />
          </mxGeometry>
        </mxCell>
        <mxCell id="ChzMChHtCchUfzMYFm7m-9" value="Executa RunCommand" style="curved=1;startArrow=none;endArrow=block;exitX=0.5;exitY=1;entryX=0.5;entryY=0.01;rounded=0;" edge="1" parent="ChzMChHtCchUfzMYFm7m-1" source="ChzMChHtCchUfzMYFm7m-3" target="ChzMChHtCchUfzMYFm7m-4">
          <mxGeometry relative="1" as="geometry">
            <Array as="points" />
          </mxGeometry>
        </mxCell>
        <mxCell id="ChzMChHtCchUfzMYFm7m-10" value="Executa comando" style="curved=1;startArrow=none;endArrow=block;exitX=0.5;exitY=1.01;entryX=0.5;entryY=-0.01;rounded=0;" edge="1" parent="ChzMChHtCchUfzMYFm7m-1" source="ChzMChHtCchUfzMYFm7m-4" target="ChzMChHtCchUfzMYFm7m-5">
          <mxGeometry relative="1" as="geometry">
            <Array as="points" />
          </mxGeometry>
        </mxCell>
        <mxCell id="ChzMChHtCchUfzMYFm7m-11" value="Processa tarefa" style="curved=1;startArrow=none;endArrow=block;exitX=0.5;exitY=0.99;entryX=0.5;entryY=0;rounded=0;" edge="1" parent="ChzMChHtCchUfzMYFm7m-1" source="ChzMChHtCchUfzMYFm7m-5" target="ChzMChHtCchUfzMYFm7m-6">
          <mxGeometry relative="1" as="geometry">
            <Array as="points" />
          </mxGeometry>
        </mxCell>
        <mxCell id="ChzMChHtCchUfzMYFm7m-12" value="Logs" style="curved=1;startArrow=none;endArrow=block;exitX=0.5;exitY=1;entryX=0.5;entryY=0.01;rounded=0;" edge="1" parent="ChzMChHtCchUfzMYFm7m-1" source="ChzMChHtCchUfzMYFm7m-6" target="ChzMChHtCchUfzMYFm7m-7">
          <mxGeometry relative="1" as="geometry">
            <Array as="points" />
          </mxGeometry>
        </mxCell>
      </root>
    </mxGraphModel>
  </diagram>
</mxfile>
